<?xml version="1.0" encoding="utf-8"?>
<!-- Generator: Adobe Illustrator 18.0.0, SVG Export Plug-In . SVG Version: 6.00 Build 0)  -->
<!DOCTYPE svg PUBLIC "-//W3C//DTD SVG 1.1 Basic//EN" "http://www.w3.org/Graphics/SVG/1.1/DTD/svg11-basic.dtd">
<svg version="1.1" baseProfile="basic" id="Layer_1"
	 xmlns="http://www.w3.org/2000/svg" xmlns:xlink="http://www.w3.org/1999/xlink" x="0px" y="0px" viewBox="0 0 250 315"
	 xml:space="preserve">
<g>
	<polygon fill="none" points="63.3,187.9 63.3,188 106.9,142.2 106.9,142.2 	"/>
	<polygon fill="none" points="115.6,133.1 115.6,133.1 140.9,106.5 	"/>
	<polygon fill="none" points="42.4,209.9 42.4,210 50.9,201 50.9,200.9 	"/>
	<polygon fill="#FFCB09" points="106.9,142.2 106.9,142.2 115.6,133.1 115.6,133.1 	"/>
	<polygon fill="#FFCB09" points="50.9,200.9 50.9,201 63.3,188 63.3,187.9 	"/>
	<path fill="#FFCB09" d="M218.8,275.2L118.4,136.9l-8.1,8.4l-0.6,0.6l99.1,136.5c1.2,1.7,3.1,2.5,5,2.5c1.3,0,2.5-0.4,3.6-1.2
		C220.2,281.8,220.8,278,218.8,275.2z"/>
	<polygon fill="#FFFFFF" points="140.9,106.5 141.1,106.3 141.1,106.3 	"/>
	<path fill="#F79321" d="M204,40.4c2.3-2.5,2.2-6.4-0.2-8.7c-1.2-1.1-2.7-1.7-4.2-1.7c-1.6,0-3.3,0.6-4.5,1.9L63.3,170.1l-12.4,13
		L30,204.3v17.9l20.9-21.2l12.4-13l43.6-45.8l8.7-9.1l25.3-26.6l0.2-0.2l0,0L204,40.4z"/>
	<g>
		<path fill="#D32027" d="M42.4,158.7V36.1c0-3.4-2.8-6.1-6.2-6.1S30,32.8,30,36.1v136.5v25.1l12.4-12.6V158.7z"/>
		<path fill="#D32027" d="M30,228.7L30,228.7l0,50.1c0,3.4,2.8,6.1,6.2,6.1s6.2-2.8,6.2-6.1V225L30,237.5V228.7z"/>
		<path fill="#F15E24" d="M63.3,163.4v-27.1V36.1c0-3.4-2.8-6.1-6.2-6.1s-6.2,2.8-6.2,6.1v114v26.2l9-9.4L63.3,163.4z"/>
		<path fill="#F15E24" d="M50.9,278.9c0,3.4,2.8,6.1,6.2,6.1s6.2-2.8,6.2-6.1v-75.5l-12.4,13V278.9z"/>
		<polygon fill="#900E11" points="33.4,225.4 30,228.7 30,237.5 42.4,225 42.4,216.2 		"/>
		<polygon fill="#A03C0F" points="54.2,204.1 50.9,207.5 50.9,216.3 63.3,203.3 63.3,194.6 		"/>
	</g>
</g>
</svg>
